# xmcd
#
# Track frame offsets: 
#        150
#        5842
#        54463
#        69170
#        98636
#        138732
#        158909
#        180932
#        204924
#        232836
#        255499
#        278604
#
# Disc length: 4275 seconds
#
# Revision: 0
# Processed by: cddbd v1.5.2PL0 Copyright (c) Steve Scherf et al.
# Submitted via: ExactAudioCopy v0.99pb4
#
DISCID=9310b10c
DTITLE=Various Artist - Gastroblues Fesztivál Paks 2006 július
DYEAR=2006
DGENRE=Blues
TTITLE0=Blues Company - Intro/Gimme Some Lovin'
TTITLE1=Blues Company - Slow Medley
TTITLE2=Keith Emerson Band - Living Sin
TTITLE3=Ten Years After - Time To Kill
TTITLE4=Twin Dragons - Hey Joe
TTITLE5=Nazareth - Miss Misery
TTITLE6=Chris Farlowe Band - Ain't No Big Deal On You
TTITLE7=Nina Van Horn - Huntsville
TTITLE8=Ripoff Raskolnikov - Temporary
TTITLE9=Deák Bill Blues Band - Felszarvazottak Balladája
TTITLE10=Muddy Shoes - All I Want
TTITLE11=Rudán Joe's Coda - Stairway To Heaven
EXTD=
EXTT0=
EXTT1=
EXTT2=
EXTT3=
EXTT4=
EXTT5=
EXTT6=
EXTT7=
EXTT8=
EXTT9=
EXTT10=
EXTT11=
PLAYORDER=
